<svg data-v-423bf9ae="" xmlns="http://www.w3.org/2000/svg" viewBox="0 0 165.24591848796598 60" class="font"><!----><!----><!----><g data-v-423bf9ae="" id="dc060121-7bb6-4133-8ae9-e6c0880fef72" fill="black" transform="matrix(4.276550330859739,0,0,4.276550330859739,-5.388453721537587,-6.756948719646331)"><path d="M5.11 4.62L5.11 4.62Q6.19 4.62 7.08 5.13L7.08 5.13L7.08 5.13Q7.97 5.64 8.47 6.53L8.47 6.53L8.47 6.53Q8.97 7.42 8.97 8.51L8.97 8.51L8.97 8.51Q8.97 9.60 8.51 10.49L8.51 10.49L8.51 10.49Q8.04 11.38 7.22 11.89L7.22 11.89L7.22 11.89Q6.40 12.39 5.39 12.39L5.39 12.39L5.39 12.39Q4.58 12.39 3.88 12.05L3.88 12.05L3.88 12.05Q3.18 11.72 2.69 11.12L2.69 11.12L2.69 14.90L2.69 14.90Q2.69 15.22 2.49 15.41L2.49 15.41L2.49 15.41Q2.30 15.61 1.97 15.61L1.97 15.61L1.97 15.61Q1.67 15.61 1.46 15.41L1.46 15.41L1.46 15.41Q1.26 15.22 1.26 14.90L1.26 14.90L1.26 8.51L1.26 8.51Q1.26 7.42 1.77 6.53L1.77 6.53L1.77 6.53Q2.28 5.64 3.16 5.13L3.16 5.13L3.16 5.13Q4.03 4.62 5.11 4.62L5.11 4.62ZM5.11 11.13L5.11 11.13Q5.81 11.13 6.38 10.79L6.38 10.79L6.38 10.79Q6.94 10.44 7.27 9.85L7.27 9.85L7.27 9.85Q7.60 9.25 7.60 8.51L7.60 8.51L7.60 8.51Q7.60 7.77 7.27 7.17L7.27 7.17L7.27 7.17Q6.94 6.57 6.38 6.22L6.38 6.22L6.38 6.22Q5.81 5.88 5.11 5.88L5.11 5.88L5.11 5.88Q4.41 5.88 3.84 6.22L3.84 6.22L3.84 6.22Q3.28 6.57 2.95 7.17L2.95 7.17L2.95 7.17Q2.63 7.77 2.63 8.51L2.63 8.51L2.63 8.51Q2.63 9.25 2.95 9.85L2.95 9.85L2.95 9.85Q3.28 10.44 3.84 10.79L3.84 10.79L3.84 10.79Q4.41 11.13 5.11 11.13L5.11 11.13ZM11.24 5.39L11.24 5.39Q11.24 5.07 11.45 4.87L11.45 4.87L11.45 4.87Q11.65 4.68 11.96 4.68L11.96 4.68L11.96 4.68Q12.28 4.68 12.47 4.87L12.47 4.87L12.47 4.87Q12.67 5.07 12.67 5.39L12.67 5.39L12.67 11.62L12.67 11.62Q12.67 11.93 12.47 12.13L12.47 12.13L12.47 12.13Q12.28 12.33 11.96 12.33L11.96 12.33L11.96 12.33Q11.65 12.33 11.45 12.13L11.45 12.13L11.45 12.13Q11.24 11.93 11.24 11.62L11.24 11.62L11.24 5.39ZM11.96 1.58L11.96 1.58Q12.33 1.58 12.61 1.85L12.61 1.85L12.61 1.85Q12.88 2.13 12.88 2.51L12.88 2.51L12.88 2.51Q12.88 2.88 12.61 3.16L12.61 3.16L12.61 3.16Q12.33 3.43 11.96 3.43L11.96 3.43L11.96 3.43Q11.58 3.43 11.30 3.16L11.30 3.16L11.30 3.16Q11.03 2.88 11.03 2.51L11.03 2.51L11.03 2.51Q11.03 2.13 11.30 1.85L11.30 1.85L11.30 1.85Q11.58 1.58 11.96 1.58L11.96 1.58ZM21.14 11.26L21.14 11.26Q21.34 11.47 21.34 11.75L21.34 11.75L21.34 11.75Q21.34 12.00 21.16 12.17L21.16 12.17L21.16 12.17Q20.99 12.33 20.71 12.33L20.71 12.33L20.71 12.33Q20.37 12.33 20.20 12.11L20.20 12.11L17.98 9.45L15.86 12.11L15.86 12.11Q15.65 12.33 15.36 12.33L15.36 12.33L15.36 12.33Q15.08 12.33 14.92 12.17L14.92 12.17L14.92 12.17Q14.76 12.00 14.76 11.75L14.76 11.75L14.76 11.75Q14.76 11.47 14.95 11.23L14.95 11.23L17.12 8.51L14.81 5.78L14.81 5.78Q14.60 5.53 14.60 5.25L14.60 5.25L14.60 5.25Q14.60 5.01 14.76 4.84L14.76 4.84L14.76 4.84Q14.92 4.68 15.22 4.68L15.22 4.68L15.22 4.68Q15.55 4.68 15.75 4.91L15.75 4.91L18.05 7.66L20.10 4.91L20.10 4.91Q20.29 4.68 20.62 4.68L20.62 4.68L20.62 4.68Q20.90 4.68 21.06 4.85L21.06 4.85L21.06 4.85Q21.22 5.03 21.22 5.28L21.22 5.28L21.22 5.28Q21.22 5.59 21.03 5.84L21.03 5.84L18.91 8.60L21.14 11.26ZM26.60 4.62L26.60 4.62Q27.71 4.62 28.58 5.12L28.58 5.12L28.58 5.12Q29.46 5.61 29.95 6.50L29.95 6.50L29.95 6.50Q30.45 7.38 30.45 8.51L30.45 8.51L30.45 8.51Q30.45 9.63 29.96 10.51L29.96 10.51L29.96 10.51Q29.47 11.40 28.60 11.89L28.60 11.89L28.60 11.89Q27.72 12.39 26.60 12.39L26.60 12.39L26.60 12.39Q25.48 12.39 24.60 11.89L24.60 11.89L24.60 11.89Q23.72 11.40 23.23 10.51L23.23 10.51L23.23 10.51Q22.74 9.63 22.74 8.51L22.74 8.51L22.74 8.51Q22.74 7.38 23.23 6.50L23.23 6.50L23.23 6.50Q23.72 5.61 24.60 5.12L24.60 5.12L24.60 5.12Q25.48 4.62 26.60 4.62L26.60 4.62ZM26.60 5.88L26.60 5.88Q25.89 5.88 25.32 6.22L25.32 6.22L25.32 6.22Q24.75 6.55 24.43 7.15L24.43 7.15L24.43 7.15Q24.11 7.76 24.11 8.51L24.11 8.51L24.11 8.51Q24.11 9.27 24.43 9.86L24.43 9.86L24.43 9.86Q24.75 10.46 25.32 10.79L25.32 10.79L25.32 10.79Q25.89 11.13 26.60 11.13L26.60 11.13L26.60 11.13Q27.31 11.13 27.88 10.79L27.88 10.79L27.88 10.79Q28.45 10.46 28.76 9.86L28.76 9.86L28.76 9.86Q29.08 9.27 29.08 8.51L29.08 8.51L29.08 8.51Q29.08 7.76 28.76 7.15L28.76 7.15L28.76 7.15Q28.45 6.55 27.88 6.22L27.88 6.22L27.88 6.22Q27.31 5.88 26.60 5.88L26.60 5.88ZM36.05 4.62L36.05 4.62Q37.16 4.62 38.03 5.12L38.03 5.12L38.03 5.12Q38.91 5.61 39.40 6.50L39.40 6.50L39.40 6.50Q39.90 7.38 39.90 8.51L39.90 8.51L39.90 8.51Q39.90 9.63 39.41 10.51L39.41 10.51L39.41 10.51Q38.92 11.40 38.05 11.89L38.05 11.89L38.05 11.89Q37.17 12.39 36.05 12.39L36.05 12.39L36.05 12.39Q34.93 12.39 34.05 11.89L34.05 11.89L34.05 11.89Q33.17 11.40 32.68 10.51L32.68 10.51L32.68 10.51Q32.19 9.63 32.19 8.51L32.19 8.51L32.19 8.51Q32.19 7.38 32.68 6.50L32.68 6.50L32.68 6.50Q33.17 5.61 34.05 5.12L34.05 5.12L34.05 5.12Q34.93 4.62 36.05 4.62L36.05 4.62ZM36.05 5.88L36.05 5.88Q35.34 5.88 34.77 6.22L34.77 6.22L34.77 6.22Q34.20 6.55 33.88 7.15L33.88 7.15L33.88 7.15Q33.56 7.76 33.56 8.51L33.56 8.51L33.56 8.51Q33.56 9.27 33.88 9.86L33.88 9.86L33.88 9.86Q34.20 10.46 34.77 10.79L34.77 10.79L34.77 10.79Q35.34 11.13 36.05 11.13L36.05 11.13L36.05 11.13Q36.76 11.13 37.33 10.79L37.33 10.79L37.33 10.79Q37.90 10.46 38.21 9.86L38.21 9.86L38.21 9.86Q38.53 9.27 38.53 8.51L38.53 8.51L38.53 8.51Q38.53 7.76 38.21 7.15L38.21 7.15L38.21 7.15Q37.90 6.55 37.33 6.22L37.33 6.22L37.33 6.22Q36.76 5.88 36.05 5.88L36.05 5.88Z"></path></g><!----><!----></svg>