<svg width="93" height="11" viewBox="0 0 93 11" fill="none" xmlns="http://www.w3.org/2000/svg">
    <path d="M11.6545 10.4228H9.00643V3.63336L6.41997 10.4228H5.2499L2.64804 3.63336V10.4228H0V0.153956H3.67955L5.83494 5.81954L7.97493 0.153956H11.6545V10.4228ZM19.9989 10.4228H17.3509V0.153956H19.9989V10.4228ZM35.3329 10.4228H32.2076L29.9753 6.97421L27.7429 10.4228H24.6176L28.1894 5.15753L24.8485 0.153956H27.9738L29.9753 3.37164L31.9613 0.153956H35.102L31.7611 5.14213L35.3329 10.4228ZM44.1973 10.4228H41.5493V2.4633H38.6703V0.153956H47.0609V2.4633H44.1973V10.4228ZM54.6656 10.4228H52.0175V0.153956H54.6656V10.4228ZM67.3219 10.4228H60.5478V0.153956H63.1959V8.11349H67.3219V10.4228ZM79.5125 10.4228H71.9841V0.153956H79.5125V2.4633H74.6321V4.06444H79.4047V6.37378H74.6321V8.11349H79.5125V10.4228ZM88.7191 10.6076C86.6407 10.6076 85.1935 9.94556 84.162 8.97564L85.563 6.91263C86.302 7.65162 87.4413 8.26744 88.8577 8.26744C89.7506 8.26744 90.3048 7.95953 90.3048 7.45147C90.3048 6.09666 84.5007 7.22054 84.5007 3.26387C84.5007 1.53956 85.9479 0 88.5805 0C90.2279 0 91.6596 0.49266 92.7527 1.43179L91.3055 3.41782C90.4434 2.69423 89.3195 2.34013 88.3034 2.34013C87.5336 2.34013 87.1949 2.60186 87.1949 3.04833C87.1949 4.31077 92.9991 3.35624 92.9991 7.17435C92.9991 9.23736 91.4749 10.6076 88.7191 10.6076Z" fill="#333333"/>
</svg>
